<svg xmlns="http://www.w3.org/2000/svg" xmlns:xlink="http://www.w3.org/1999/xlink" width="117" zoomAndPan="magnify" viewBox="0 0 87.75 30.000001" height="40" preserveAspectRatio="xMidYMid meet" version="1.2"><defs><clipPath id="bdd232effd"><path d="M 5.292969 0.324219 L 43.761719 0.324219 L 43.761719 28.632812 L 5.292969 28.632812 Z M 5.292969 0.324219 "/></clipPath><clipPath id="1410c289ba"><path d="M 43.753906 0.324219 L 82.222656 0.324219 L 82.222656 28.632812 L 43.753906 28.632812 Z M 43.753906 0.324219 "/></clipPath></defs><g id="6b8ec76f70"><g clip-rule="nonzero" clip-path="url(#bdd232effd)"><path style=" stroke:none;fill-rule:evenodd;fill:#bb9979;fill-opacity:1;" d="M 20.875 11.738281 L 16.734375 7.609375 L 10.566406 13.761719 L 9.660156 12.859375 L 16.734375 5.804688 L 21.78125 10.835938 L 32.316406 0.328125 L 43.757812 11.738281 L 41.730469 13.761719 L 40.824219 12.859375 L 41.945312 11.738281 L 32.316406 2.136719 L 14.898438 19.511719 L 16.734375 21.34375 C 21.914062 16.179688 27.089844 11.015625 32.269531 5.851562 L 32.316406 5.804688 L 43.757812 17.214844 L 32.316406 28.625 L 25.242188 21.570312 L 26.148438 20.664062 L 32.316406 26.816406 L 41.945312 17.214844 L 35.0625 10.347656 L 28.175781 17.214844 L 32.316406 21.34375 L 38.484375 15.191406 L 39.390625 16.09375 L 32.316406 23.152344 L 27.269531 18.117188 L 16.734375 28.625 L 5.292969 17.214844 L 7.320312 15.191406 L 8.226562 16.097656 L 7.105469 17.214844 L 16.734375 26.816406 L 34.15625 9.445312 L 32.316406 7.613281 C 27.136719 12.777344 21.960938 17.941406 16.78125 23.105469 L 16.734375 23.152344 L 5.292969 11.738281 L 16.734375 0.328125 L 23.808594 7.386719 L 22.902344 8.289062 L 16.734375 2.136719 L 7.105469 11.738281 L 13.992188 18.605469 Z M 20.875 11.738281 "/></g><g clip-rule="nonzero" clip-path="url(#1410c289ba)"><path style=" stroke:none;fill-rule:evenodd;fill:#bb9979;fill-opacity:1;" d="M 59.335938 11.738281 L 55.195312 7.609375 L 49.027344 13.761719 L 48.121094 12.859375 L 55.195312 5.804688 L 60.242188 10.835938 L 70.777344 0.328125 L 82.21875 11.738281 L 80.191406 13.761719 L 79.285156 12.859375 L 80.40625 11.738281 L 70.777344 2.136719 L 53.359375 19.511719 L 55.195312 21.34375 C 60.375 16.179688 65.550781 11.015625 70.730469 5.851562 L 70.777344 5.804688 L 82.21875 17.214844 L 70.777344 28.625 L 63.703125 21.570312 L 64.609375 20.664062 L 70.777344 26.816406 L 80.40625 17.214844 L 73.523438 10.347656 L 66.636719 17.214844 L 70.777344 21.34375 L 76.945312 15.191406 L 77.851562 16.09375 L 70.777344 23.152344 L 65.730469 18.117188 L 55.195312 28.625 L 43.753906 17.214844 L 45.78125 15.191406 L 46.6875 16.097656 L 45.566406 17.214844 L 55.195312 26.816406 L 72.613281 9.445312 L 70.777344 7.613281 C 65.597656 12.777344 60.421875 17.941406 55.242188 23.105469 L 55.195312 23.152344 L 43.753906 11.738281 L 55.195312 0.328125 L 62.269531 7.386719 L 61.363281 8.289062 L 55.195312 2.136719 L 45.566406 11.738281 L 52.453125 18.605469 Z M 59.335938 11.738281 "/></g></g></svg>